<?xml version="1.0" standalone="no"?>
<!DOCTYPE svg PUBLIC "-//W3C//DTD SVG 20010904//EN"
 "http://www.w3.org/TR/2001/REC-SVG-20010904/DTD/svg10.dtd">
<svg version="1.0" xmlns="http://www.w3.org/2000/svg"
 width="1200.000000pt" height="1200.000000pt" viewBox="0 0 1200.000000 1200.000000"
 preserveAspectRatio="xMidYMid meet">

<g transform="translate(0.000000,1200.000000) scale(0.100000,-0.100000)"
fill="#000000" stroke="none">
<path d="M4037 11907 c-16 -11 27 -78 479 -737 273 -399 634 -925 801 -1169
168 -245 307 -449 309 -455 2 -6 -320 -199 -716 -430 l-719 -419 -3 -93 -3
-94 -689 840 c-655 797 -691 839 -710 826 -12 -7 -20 -17 -19 -22 2 -5 321
-398 710 -873 l708 -863 5 -915 5 -915 192 -112 c106 -61 193 -117 193 -124 0
-7 -185 -408 -411 -890 -226 -482 -414 -885 -416 -894 -4 -14 -12 -16 -37 -10
-17 4 -77 7 -133 6 -111 0 -146 -13 -164 -60 -12 -34 -13 -422 -1 -455 6 -14
22 -35 35 -45 l25 -19 -158 -335 -158 -335 26 -14 c14 -8 28 -10 29 -5 2 5 74
160 161 344 l158 335 95 6 c102 7 131 18 149 58 9 21 15 331 8 466 0 8 809
1743 843 1807 7 14 51 -9 301 -154 161 -94 297 -174 301 -178 4 -4 -155 -306
-354 -671 -199 -365 -400 -736 -448 -823 l-86 -159 -3 122 -3 121 -58 0 -59 0
-4 -236 c-3 -193 -6 -237 -18 -244 -21 -14 -74 -12 -88 2 -9 9 -12 77 -12 245
l0 233 -65 0 -65 0 0 -247 c0 -288 5 -308 75 -331 59 -20 125 -9 152 25 l23
28 0 -32 0 -33 59 0 59 0 4 117 4 118 83 150 c45 83 87 154 92 159 5 6 9 -98
9 -267 l0 -277 60 0 60 0 1 173 c1 183 9 271 26 288 6 6 32 14 57 16 l46 6 0
53 c0 39 -4 54 -14 54 -33 0 -77 -24 -95 -53 l-21 -32 0 42 0 42 -53 3 -52 3
365 670 c201 369 370 677 375 686 9 14 59 -13 349 -182 219 -129 349 -199 366
-199 17 0 94 39 201 101 144 85 174 100 183 87 52 -68 261 -318 267 -318 4 0
11 9 14 20 8 26 20 25 38 -1 17 -23 -17 -79 300 500 l144 265 269 158 c148 86
274 157 279 158 6 0 266 -374 580 -831 313 -457 572 -832 576 -835 12 -7 42
23 37 37 -3 8 -260 385 -572 839 l-565 824 29 19 30 19 0 416 1 417 714 1310
c635 1165 712 1311 698 1323 -9 6 -22 12 -27 12 -6 0 -319 -567 -696 -1260
l-685 -1259 -3 573 -2 573 -385 224 c-211 123 -385 227 -385 230 0 3 109 205
241 449 225 413 240 444 223 457 -10 7 -21 13 -25 13 -4 0 -116 -200 -249
-445 -134 -245 -246 -444 -250 -443 -4 2 -183 106 -397 231 l-391 229 13 31
c8 18 50 109 94 202 73 154 79 171 64 183 -9 6 -21 12 -26 12 -7 0 -87 -159
-167 -338 l-29 -62 -58 35 c-32 19 -69 35 -82 35 -14 0 -81 -33 -150 -74 -69
-40 -136 -78 -148 -84 -23 -13 33 -92 -1344 1917 -156 228 -289 416 -294 418
-6 2 -19 -3 -28 -10z m2832 -6094 c-94 -175 -177 -323 -183 -329 -8 -9 -41 25
-129 133 -65 79 -120 150 -123 156 -4 11 596 371 604 362 2 -2 -74 -147 -169
-322z m-3205 -1359 c13 -34 4 -66 -59 -197 -36 -76 -66 -137 -68 -137 -6 0 -1
327 6 338 13 19 113 16 121 -4z m5 -301 c1 -61 -6 -73 -46 -73 -24 0 -34 4
-30 13 42 103 61 138 68 121 4 -11 8 -38 8 -61z"/>
<path d="M6644 5399 c-5 -8 -134 -243 -286 -524 l-278 -510 0 68 c0 62 -3 71
-28 97 -34 34 -107 46 -215 36 -79 -7 -113 -24 -128 -62 -13 -35 -13 -422 0
-456 19 -51 53 -63 182 -63 174 0 186 11 192 176 l3 96 299 551 c165 303 303
550 307 549 3 -1 152 -180 331 -398 l324 -396 -58 0 c-48 0 -64 -4 -84 -23
l-25 -23 0 26 c0 26 -2 27 -60 27 l-60 0 0 -375 0 -375 60 0 60 0 0 107 0 106
26 -24 c22 -20 35 -24 87 -23 126 1 137 24 137 285 l0 191 78 -94 77 -93 3
-100 c3 -123 7 -139 33 -164 27 -25 113 -37 153 -21 20 7 32 8 40 0 5 -5 41
-10 78 -10 l68 0 0 295 0 295 -65 0 -65 0 0 -31 0 -32 -20 26 c-24 30 -73 41
-131 28 -66 -15 -83 -39 -89 -124 l-5 -73 -429 523 c-236 288 -433 523 -437
523 -5 0 -9 -3 -9 -7 0 -5 -5 -15 -10 -23 -9 -13 -13 -11 -29 9 -14 19 -20 21
-27 10z m-689 -948 c9 -30 3 -315 -8 -328 -5 -7 -7 -20 -3 -28 4 -12 -5 -15
-49 -15 -32 0 -57 5 -62 13 -11 17 -12 338 -1 360 13 26 114 25 123 -2z m1333
6 c7 -8 11 -78 11 -184 0 -192 -2 -196 -66 -191 -38 3 -38 3 -46 58 -13 80 -2
311 15 321 20 13 74 11 86 -4z m531 -9 c11 -27 12 -315 2 -341 -6 -16 -14 -10
-56 38 l-49 57 -1 112 c-3 142 2 156 55 156 33 0 42 -4 49 -22z"/>
<path d="M2852 4558 c3 -7 34 -133 68 -280 l63 -268 28 0 c35 0 42 -11 28 -46
-14 -38 -25 -44 -81 -44 l-48 0 0 -51 0 -52 76 5 c86 6 119 24 146 79 13 26
148 630 148 662 0 4 -29 7 -63 7 l-64 0 -38 -225 c-21 -124 -41 -222 -44 -219
-3 3 -24 103 -46 222 l-40 217 -69 3 c-53 2 -67 0 -64 -10z"/>
<path d="M5256 4561 c-23 -5 -49 -20 -63 -35 -23 -27 -23 -32 -23 -252 l0
-226 28 -28 c22 -22 42 -30 87 -35 68 -9 176 -1 206 15 29 16 49 70 49 130 l0
50 -64 0 -65 0 -3 -47 -3 -48 -47 -2 c-28 -1 -50 3 -55 10 -11 16 -13 326 -2
354 6 17 16 22 47 21 53 -1 60 -6 64 -53 l3 -40 60 0 60 0 3 40 c5 55 -14 112
-43 131 -27 18 -179 27 -239 15z"/>
<path d="M6270 4275 l0 -295 59 0 59 0 4 236 c3 193 6 237 18 244 21 14 74 12
88 -2 9 -9 12 -77 12 -245 l0 -233 65 0 65 0 0 233 c0 250 1 257 51 257 61 0
59 10 59 -251 l0 -239 65 0 65 0 0 249 c0 137 -4 261 -10 275 -15 41 -54 60
-128 60 -58 0 -67 -3 -89 -28 l-23 -28 -18 22 c-35 43 -155 47 -199 7 l-23
-20 0 26 c0 26 -2 27 -60 27 l-60 0 0 -295z"/>
<path d="M8140 4275 l0 -295 59 0 59 0 4 236 c3 193 6 237 18 244 21 14 74 12
88 -2 9 -9 12 -77 12 -245 l0 -233 65 0 65 0 0 238 c0 134 -5 253 -11 275 -14
52 -45 69 -124 70 -55 1 -69 -3 -90 -23 l-25 -23 0 26 c0 26 -2 27 -60 27
l-60 0 0 -295z"/>
<path d="M8642 4558 c3 -7 34 -133 68 -280 l63 -268 28 0 c35 0 42 -11 28 -46
-14 -38 -25 -44 -81 -44 l-48 0 0 -51 0 -52 76 5 c86 6 119 24 146 79 13 26
148 630 148 662 0 4 -29 7 -63 7 l-64 0 -38 -225 c-21 -124 -41 -222 -44 -219
-3 3 -24 103 -46 222 l-40 217 -69 3 c-53 2 -67 0 -64 -10z"/>
</g>
</svg>
