<?xml version="1.0" standalone="no"?>
<!DOCTYPE svg PUBLIC "-//W3C//DTD SVG 20010904//EN"
 "http://www.w3.org/TR/2001/REC-SVG-20010904/DTD/svg10.dtd">
<svg version="1.0" xmlns="http://www.w3.org/2000/svg"
 width="1200.000000pt" height="1200.000000pt" viewBox="0 0 1200.000000 1200.000000"
 preserveAspectRatio="xMidYMid meet">

<g transform="translate(0.000000,1200.000000) scale(0.100000,-0.100000)"
fill="#000000" stroke="none">
<path d="M5960 9732 c-94 -48 -270 -156 -270 -164 0 -18 233 -349 240 -341 10
12 211 445 208 448 -13 12 -107 64 -123 69 -12 3 -36 -2 -55 -12z"/>
<path d="M6187 9633 c-27 -45 -217 -468 -215 -478 6 -24 553 -814 559 -807 13
13 449 819 449 828 0 8 -770 464 -784 464 -2 0 -7 -3 -9 -7z"/>
<path d="M4910 9122 l-715 -418 -3 -100 -3 -99 427 -520 c234 -286 436 -530
448 -543 l21 -22 405 865 405 865 21 -26 21 -26 13 31 c11 27 10 35 -5 58
l-18 26 -14 -26 c-7 -15 -15 -27 -17 -27 -1 0 -61 85 -132 190 -71 104 -131
189 -134 189 -3 0 -327 -188 -720 -417z"/>
<path d="M6801 8718 l-234 -431 -19 23 c-20 25 -20 25 -37 -8 -10 -19 -9 -28
5 -49 l17 -26 14 27 c8 16 18 24 23 20 4 -5 207 -299 450 -654 243 -355 447
-651 454 -658 11 -11 43 43 175 283 l161 297 -2 581 -3 581 -375 219 c-206
120 -379 221 -385 223 -5 2 -115 -191 -244 -428z"/>
<path d="M5915 9052 c-10 -20 -191 -406 -402 -857 -212 -451 -386 -822 -389
-824 -2 -2 -12 7 -23 20 l-19 24 -12 -29 c-11 -29 -11 -29 -29 -10 -10 10
-184 222 -387 469 -202 248 -389 476 -416 508 l-48 58 0 -913 0 -913 196 -113
c108 -63 200 -110 204 -105 4 4 110 227 235 496 125 268 231 487 234 487 3 0
12 -10 20 -22 l13 -22 15 28 c13 24 17 26 28 15 8 -8 124 -149 260 -314 135
-165 249 -301 253 -302 8 -3 842 1528 842 1546 0 11 -535 797 -549 805 -4 3
-16 -12 -26 -32z"/>
<path d="M6502 8168 c-16 -29 -199 -366 -407 -748 -207 -382 -384 -706 -393
-719 l-15 -25 -18 23 -18 22 -16 -25 -17 -25 -256 314 c-142 173 -260 314
-263 314 -3 1 -108 -218 -233 -485 -176 -377 -225 -489 -214 -495 52 -35 579
-339 585 -339 4 0 91 153 193 340 101 187 187 340 191 340 4 0 12 -7 19 -15
17 -20 27 -19 35 6 4 11 10 19 15 17 5 -2 171 -201 369 -443 199 -242 365
-440 369 -440 4 0 145 80 313 178 l306 178 192 353 c105 194 197 361 205 371
13 18 14 18 27 -3 17 -27 26 -28 34 -2 3 11 10 20 15 20 4 0 58 -74 120 -164
l112 -164 29 17 29 16 0 414 c0 228 -2 412 -4 410 -2 -2 -65 -116 -140 -253
-75 -137 -139 -252 -142 -255 -3 -3 -14 5 -23 18 l-19 24 -14 -28 -15 -28
-110 159 c-60 88 -266 387 -457 667 -191 279 -349 507 -351 507 -2 0 -16 -24
-33 -52z"/>
<path d="M7320 6523 c-91 -167 -166 -308 -168 -313 -3 -8 520 292 541 309 6 7
-183 294 -201 304 -4 3 -81 -132 -172 -300z"/>
<path d="M5500 6328 c-84 -156 -166 -306 -181 -333 l-28 -50 341 -199 c215
-126 351 -199 368 -199 28 0 371 192 367 206 -4 14 -698 857 -706 857 -4 0
-77 -127 -161 -282z"/>
<path d="M2850 4565 c0 -3 29 -129 65 -280 36 -152 65 -277 65 -280 0 -3 16
-5 34 -5 35 0 35 0 24 -30 -13 -37 -35 -50 -87 -50 l-41 0 0 -50 0 -50 66 0
c79 0 126 20 153 64 16 27 151 625 151 671 0 12 -14 15 -65 15 l-64 0 -6 -32
c-3 -18 -21 -118 -39 -223 -22 -128 -35 -182 -40 -165 -8 30 -76 399 -76 411
0 5 -31 9 -70 9 -38 0 -70 -2 -70 -5z"/>
<path d="M3465 4556 c-51 -22 -55 -47 -56 -285 -2 -240 1 -254 56 -277 52 -21
230 -19 275 4 52 26 59 57 59 277 0 220 -7 251 -59 277 -44 22 -228 25 -275 4z
m190 -281 l0 -190 -55 0 -55 0 -3 180 c-1 98 0 185 3 193 3 9 20 12 57 10 l53
-3 0 -190z"/>
<path d="M3972 4305 l3 -265 27 -26 c42 -42 154 -47 192 -8 15 14 16 14 16 -5
0 -19 6 -21 70 -21 l70 0 0 295 0 295 -70 0 -70 0 -2 -237 -3 -238 -44 -3
c-28 -2 -47 1 -52 10 -5 7 -9 115 -9 241 l0 227 -65 0 -66 0 3 -265z"/>
<path d="M4520 4275 l0 -295 70 0 70 0 0 213 c0 249 2 257 76 257 l44 0 0 60
0 60 -31 0 c-20 0 -40 -10 -60 -29 l-29 -29 0 29 0 29 -70 0 -70 0 0 -295z"/>
<path d="M5220 4553 c-52 -27 -59 -59 -59 -278 0 -219 7 -251 59 -278 29 -15
55 -17 148 -15 l114 3 29 33 c26 29 29 40 29 97 l0 65 -64 0 -65 0 -3 -42 -3
-43 -52 -3 -53 -3 0 186 0 186 53 -3 52 -3 3 -42 3 -43 65 0 64 0 0 65 c0 57
-3 68 -29 97 l-29 33 -114 3 c-94 3 -119 0 -148 -15z"/>
<path d="M5755 4556 c-51 -22 -55 -47 -56 -285 -2 -240 1 -254 56 -277 52 -21
230 -19 275 4 52 26 59 57 59 277 0 220 -7 251 -59 277 -44 22 -228 25 -275 4z
m190 -281 l0 -190 -55 0 -55 0 -3 180 c-1 98 0 185 3 193 3 9 20 12 57 10 l53
-3 0 -190z"/>
<path d="M6260 4275 l0 -295 70 0 70 0 2 238 3 237 48 3 47 3 0 -240 0 -241
70 0 70 0 2 238 3 237 50 0 50 0 3 -237 2 -238 65 0 65 0 0 255 c0 169 -4 262
-11 279 -15 33 -66 56 -124 56 -48 0 -100 -20 -108 -42 -3 -9 -12 -6 -30 11
-43 39 -154 42 -191 5 -15 -14 -16 -14 -16 5 0 19 -6 21 -70 21 l-70 0 0 -295z"/>
<path d="M7050 4195 l0 -375 70 0 70 0 0 101 c0 91 1 99 16 85 38 -39 150 -34
192 8 l27 26 0 235 0 235 -27 26 c-42 42 -154 47 -192 8 -15 -14 -16 -14 -16
5 0 19 -6 21 -70 21 l-70 0 0 -375z m240 79 l0 -185 -47 3 -48 3 -3 170 c-1
93 0 175 2 182 3 8 23 13 51 13 l45 0 0 -186z"/>
<path d="M7640 4553 c-52 -27 -59 -59 -59 -273 -1 -213 6 -253 52 -280 45 -28
135 -27 171 1 l26 20 0 -20 c0 -19 6 -21 65 -21 l65 0 0 295 0 295 -65 0 c-63
0 -65 -1 -65 -26 l0 -26 -19 23 c-25 31 -120 38 -171 12z m184 -145 c8 -67 8
-198 0 -265 -6 -46 -9 -51 -33 -55 -14 -2 -36 -2 -48 0 -23 3 -23 4 -23 188
l0 184 49 0 48 0 7 -52z"/>
<path d="M8130 4275 l0 -295 70 0 70 0 2 238 3 237 48 3 47 3 0 -240 0 -241
70 0 71 0 -3 265 -3 265 -27 26 c-42 42 -154 47 -192 8 -15 -14 -16 -14 -16 5
0 19 -6 21 -70 21 l-70 0 0 -295z"/>
<path d="M8640 4565 c0 -3 29 -129 65 -280 36 -152 65 -277 65 -280 0 -3 16
-5 34 -5 35 0 35 0 24 -30 -13 -37 -35 -50 -87 -50 l-41 0 0 -50 0 -50 66 0
c79 0 126 20 153 64 16 27 151 625 151 671 0 12 -14 15 -65 15 l-64 0 -6 -32
c-3 -18 -21 -118 -39 -223 -22 -128 -35 -182 -40 -165 -8 30 -76 399 -76 411
0 5 -31 9 -70 9 -38 0 -70 -2 -70 -5z"/>
</g>
</svg>
